<svg width="14" height="8" viewBox="0 0 14 8" fill="none" xmlns="http://www.w3.org/2000/svg">
<path d="M4.69502 0.271843C4.95074 0.188301 5.20645 0.0421011 5.46908 0.0281774C6.16712 -0.00663207 6.87207 -0.00663207 7.57702 0.0142536C8.05389 0.0281774 8.22668 0.237034 8.22668 0.724366C8.23359 1.5946 8.21976 2.46484 8.2405 3.33507C8.2405 3.48127 8.33726 3.73886 8.42019 3.75279C8.56533 3.78063 8.80031 3.71101 8.89707 3.59962C9.20807 3.21672 9.50526 2.81293 9.75406 2.38129C10.0651 1.83827 10.3277 1.27435 10.5903 0.710442C10.7216 0.418043 10.9221 0.285767 11.2331 0.292729C11.9933 0.299691 12.7535 0.299691 13.5138 0.320577C13.9146 0.327538 14.0805 0.557281 13.963 0.947146C13.9146 1.10727 13.8317 1.26739 13.7349 1.41359C13.1337 2.31864 12.5324 3.22368 11.9173 4.12177C11.5855 4.6091 11.5786 4.60214 11.9933 5.0477C12.56 5.65338 13.1198 6.26603 13.7004 6.87171C13.9285 7.10842 14.0045 7.35904 13.8732 7.6584C13.7488 7.93688 13.5069 8.0065 13.2166 7.99954C12.5393 7.98561 11.8551 7.98561 11.1778 7.99954C10.8668 8.0065 10.6249 7.90903 10.4175 7.67233C10.0167 7.22677 9.60201 6.79513 9.18734 6.34957C9.02147 6.16856 8.84178 6.05021 8.57915 6.16856C8.33034 6.27995 8.19212 6.44007 8.21285 6.73247C8.22668 6.97614 8.20594 7.21981 8.21976 7.46347C8.23359 7.77676 8.0608 7.92992 7.78435 7.92992C7.15543 7.93688 6.51268 7.96473 5.89067 7.89511C4.79178 7.77676 3.94169 7.15019 3.22983 6.35653C2.82898 5.91097 2.4696 5.41668 2.17932 4.89454C1.46055 3.5857 0.783249 2.25598 0.0990339 0.933223C-0.108304 0.529433 0.00918755 0.348424 0.458419 0.341462C1.08043 0.3345 1.70245 0.341462 2.32446 0.327538C2.67693 0.320577 2.89809 0.466776 3.07088 0.780061C3.58231 1.71295 4.12139 2.62496 4.65355 3.54393C4.77105 3.73886 4.91618 3.91291 5.17881 3.82937C5.44835 3.74582 5.48982 3.52304 5.48982 3.27242C5.4829 2.71547 5.47599 2.15851 5.48982 1.60156C5.50364 1.12816 5.37232 0.759175 4.90927 0.564243C4.84016 0.536395 4.78487 0.466776 4.72267 0.418043C4.71576 0.36931 4.70884 0.320577 4.69502 0.271843Z" fill="white"/>
</svg>
