<svg width="12" height="12" viewBox="0 0 12 12" fill="none" xmlns="http://www.w3.org/2000/svg">
<path d="M5 1.00493L5 8.59493L1.71271 5.29493C1.52456 5.10662 1.26938 5.00083 1.0033 5.00083C0.737213 5.00083 0.482028 5.10662 0.29388 5.29493C0.105731 5.48323 3.02439e-05 5.73862 3.02555e-05 6.00493C3.02672e-05 6.27123 0.105731 6.52662 0.29388 6.71493L5.28976 11.7149C5.38479 11.806 5.49684 11.8773 5.61949 11.9249C5.86275 12.0249 6.1356 12.0249 6.37887 11.9249C6.50152 11.8773 6.61357 11.806 6.70859 11.7149L11.7045 6.71492C11.7981 6.62196 11.8725 6.51136 11.9232 6.3895C11.9739 6.26764 12 6.13694 12 6.00492C12 5.87291 11.9739 5.74221 11.9232 5.62035C11.8725 5.49849 11.7981 5.38789 11.7045 5.29492C11.6116 5.2012 11.5011 5.1268 11.3793 5.07603C11.2576 5.02526 11.127 4.99913 10.9951 4.99913C10.8632 4.99913 10.7326 5.02526 10.6108 5.07603C10.489 5.1268 10.3785 5.2012 10.2856 5.29492L6.99835 8.59493L6.99835 1.00493C6.99835 0.739709 6.89308 0.485354 6.7057 0.297818C6.51832 0.110282 6.26418 0.00492545 5.99918 0.00492547C5.73418 0.00492548 5.48004 0.110282 5.29265 0.297818C5.10527 0.485354 5 0.739709 5 1.00493Z" fill="white"/>
</svg>
