<svg width="170" height="240" viewBox="0 0 170 240" fill="none" xmlns="http://www.w3.org/2000/svg">
<path d="M0 20L20 0H150L170 20V220L150 240H20L0 220V20Z" fill="white"/>
<path d="M56.6327 206.784L49.7367 213.488H55.5287L55.0167 216H44.9847L45.3847 214.016L52.2807 207.312H46.8887L47.3847 204.8H57.0327L56.6327 206.784ZM64.4841 213.824H59.7161L58.4201 216H55.0761L62.2601 204.8H65.3801L68.0841 216H64.9321L64.4841 213.824ZM64.0041 211.488L63.2521 207.856L61.1081 211.488H64.0041ZM73.1742 216.224C72.2462 216.224 71.3662 216.112 70.5342 215.888C69.7022 215.664 69.0249 215.376 68.5022 215.024L69.7502 212.656C70.3155 213.019 70.9182 213.296 71.5582 213.488C72.1982 213.669 72.8382 213.76 73.4782 213.76C74.0862 213.76 74.5555 213.675 74.8862 213.504C75.2275 213.323 75.3982 213.077 75.3982 212.768C75.3982 212.501 75.2435 212.293 74.9342 212.144C74.6355 211.995 74.1662 211.835 73.5262 211.664C72.8009 211.472 72.1982 211.28 71.7182 211.088C71.2382 210.885 70.8222 210.581 70.4702 210.176C70.1289 209.771 69.9582 209.237 69.9582 208.576C69.9582 207.776 70.1769 207.077 70.6142 206.48C71.0515 205.872 71.6755 205.403 72.4862 205.072C73.2969 204.741 74.2462 204.576 75.3342 204.576C76.1342 204.576 76.8809 204.661 77.5742 204.832C78.2675 204.992 78.8649 205.227 79.3662 205.536L78.2142 207.888C77.7769 207.611 77.2915 207.403 76.7582 207.264C76.2355 207.115 75.6969 207.04 75.1422 207.04C74.5129 207.04 74.0169 207.141 73.6542 207.344C73.3022 207.547 73.1262 207.808 73.1262 208.128C73.1262 208.405 73.2809 208.619 73.5902 208.768C73.8995 208.917 74.3795 209.077 75.0302 209.248C75.7555 209.429 76.3529 209.616 76.8222 209.808C77.3022 210 77.7129 210.293 78.0542 210.688C78.3955 211.083 78.5662 211.6 78.5662 212.24C78.5662 213.029 78.3422 213.728 77.8942 214.336C77.4569 214.933 76.8275 215.397 76.0062 215.728C75.1955 216.059 74.2515 216.224 73.1742 216.224ZM83.3133 207.312H79.8733L80.3853 204.8H90.4173L89.9053 207.312H86.4813L84.7373 216H81.5693L83.3133 207.312ZM96.8591 213.824H92.0911L90.7951 216H87.4511L94.6351 204.8H97.7551L100.459 216H97.3071L96.8591 213.824ZM96.3791 211.488L95.6271 207.856L93.4831 211.488H96.3791ZM114.332 204.8L107.308 216H104.188L101.644 204.8H104.892L106.492 212.08L111.068 204.8H114.332ZM120.437 213.824H115.669L114.373 216H111.029L118.213 204.8H121.333L124.037 216H120.885L120.437 213.824ZM119.957 211.488L119.205 207.856L117.061 211.488H119.957Z" fill="black"/>
<g filter="url(#filter0_d)">
<path d="M20 30L30 20H140L150 30V170L140 180H30L20 170V30Z" fill="black"/>
</g>
<path d="M83.6181 149.403C68.8057 142.358 58.1079 133.105 52.759 122.776C48.9971 115.552 48.9384 109.881 48.9384 108.866V108.746V108.627V108.448V108.149V56.8059L51.701 56.388C62.6927 54.8358 73.8607 54.0596 84.9112 54.0596C96.0205 54.0596 107.189 54.8358 118.121 56.388L120.884 56.8059V108.448V108.687V108.806C120.884 109.881 120.825 115.493 117.063 122.716C111.656 133.105 101.017 142.299 86.2044 149.343L84.8524 150L83.6181 149.403Z" fill="#F8C730"/>
<path d="M84.7356 146.955C70.4523 140.149 60.2247 131.313 55.1109 121.463C51.5841 114.716 51.5841 109.463 51.6429 108.865L51.7017 108.507V108.089V59.1341L52.1719 59.0744C63.0461 57.5222 74.0966 56.746 85.0295 56.746C95.9624 56.746 107.072 57.5222 117.887 59.0744L118.357 59.1341V108.567V108.865C118.357 109.463 118.357 114.716 114.889 121.463C109.776 131.313 99.4892 140.089 85.2646 146.955L85.0295 147.075L84.7356 146.955Z" fill="black"/>
<path d="M84.9707 144.089C71.6866 137.582 62.1644 129.343 57.462 120.209C54.3467 114.239 54.288 109.642 54.288 109.045L54.3467 108.686V108.149V61.5818C64.5155 60.2087 74.8019 59.5519 85.0295 59.5519C95.2571 59.5519 105.602 60.2684 115.712 61.5818V108.806V109.104C115.712 109.701 115.595 114.358 112.538 120.268C107.777 129.343 98.2548 137.582 84.9707 144.089Z" fill="#F8C730"/>
<path d="M84.971 141.045C72.8037 134.896 64.1044 127.254 59.8135 118.956C57.1685 113.881 56.9333 109.941 56.9333 109.165L56.9921 108.806V108.15V63.9705C66.2792 62.8362 75.6839 62.2392 85.0298 62.2392C94.3757 62.2392 103.78 62.8362 113.068 63.9705V108.926V109.224C113.068 110.06 112.832 113.941 110.187 119.015C105.838 127.254 97.1383 134.896 84.971 141.045Z" fill="white"/>
<path d="M84.9704 138C73.9199 132.209 66.0435 125.224 62.164 117.642C59.9304 113.283 59.6365 109.94 59.5778 109.164L59.6365 108.806V107.97V69.0446C68.042 68.0894 76.5649 67.6118 84.9704 67.6118C93.3758 67.6118 101.899 68.0894 110.304 69.0446V108.985V109.224C110.245 110 109.952 113.403 107.718 117.701C103.897 125.224 96.0209 132.269 84.9704 138Z" fill="black"/>
<path d="M68.2191 65.5219C73.8031 65.104 79.3872 64.9249 84.9712 64.9249C90.5552 64.9249 96.1392 65.104 101.723 65.5219V57.4025C96.1392 56.9846 90.5552 56.8055 84.9712 56.8055C79.3872 56.8055 73.8031 56.9846 68.2191 57.4025V65.5219Z" fill="black"/>
<path d="M71.6866 63.5521C71.5103 63.5521 71.3339 63.5521 71.0988 63.6118C70.9225 63.0745 70.6874 62.4775 70.511 61.9402V61.582C70.6874 61.582 70.8637 61.582 71.04 61.5223V60.3283C70.8049 60.3283 70.5698 60.388 70.3347 60.388V63.6118C70.1583 63.6118 69.982 63.6118 69.8057 63.6715V59.9701C70.2759 59.9103 70.7461 59.9103 71.2751 59.8506C71.5103 59.8506 71.6278 59.9701 71.6278 60.1492V61.5223C71.6278 61.7014 71.569 61.7611 71.4515 61.8208C71.3927 61.8208 71.2751 61.8805 71.0988 61.8805C71.3339 62.4775 71.5103 63.0148 71.6866 63.5521Z" fill="white"/>
<path d="M74.9783 63.0152C74.9783 63.254 74.8608 63.3734 74.6257 63.3734C74.2142 63.3734 73.8615 63.4331 73.4501 63.4331C73.215 63.4331 73.0974 63.3137 73.0974 63.1346V59.7316C73.2737 59.7316 73.4501 59.7316 73.6264 59.6719V62.8958C73.8615 62.8958 74.0967 62.8958 74.3906 62.8361V59.6122C74.5669 59.6122 74.7432 59.6122 74.9196 59.6122V63.0152H74.9783Z" fill="white"/>
<path d="M78.3287 62.8952C78.3287 63.134 78.2111 63.2534 77.976 63.2534C77.5646 63.2534 77.2119 63.2534 76.8004 63.3131C76.5653 63.3131 76.4478 63.1937 76.4478 63.0146V59.9699C76.4478 59.731 76.5653 59.6116 76.8004 59.6116C77.1531 59.6116 77.5646 59.5519 77.9172 59.5519C78.1524 59.5519 78.2699 59.6713 78.2699 59.9102V60.6863C78.0936 60.6863 77.9172 60.6863 77.7409 60.6863V60.0296C77.5058 60.0296 77.2707 60.0296 77.0355 60.0296V62.7758C77.2707 62.7758 77.5058 62.7758 77.7409 62.7758V61.7609C77.6233 61.7609 77.447 61.7609 77.3294 61.7609V61.2833C77.6233 61.2833 77.976 61.2833 78.2699 61.2236V62.8952H78.3287Z" fill="white"/>
<path d="M81.1498 62.6563C81.1498 62.2981 81.1498 61.9399 81.1498 61.5817C81.0323 61.522 80.9735 61.4623 80.8559 61.4026C80.7384 61.4026 80.562 61.4026 80.4445 61.4026V62.6563C80.6796 62.6563 80.9147 62.6563 81.1498 62.6563ZM81.0911 60.8056V59.91C80.8559 59.91 80.6208 59.91 80.3857 59.91V60.9847C80.5033 60.9847 80.6796 60.9847 80.7972 60.9847C80.9147 60.925 81.0323 60.8653 81.0911 60.8056ZM81.6788 62.7757C81.6788 63.0145 81.5613 63.1339 81.3262 63.1339C80.8559 63.1339 80.3269 63.1339 79.8567 63.1936V59.4921C80.3269 59.4921 80.8559 59.4921 81.3262 59.4324C81.5613 59.4324 81.6788 59.5518 81.6788 59.7906V60.7459C81.6788 60.8653 81.6201 60.9847 81.5613 61.0444C81.5613 61.0444 81.4437 61.1041 81.2674 61.2235C81.4437 61.3429 81.5613 61.4026 81.5613 61.4026C81.6201 61.4623 81.6788 61.5817 81.6788 61.7011V62.7757Z" fill="white"/>
<path d="M85.0879 59.3736C84.9116 59.9109 84.7352 60.3885 84.6177 60.9258C84.5589 61.1049 84.5001 61.3437 84.3826 61.702V63.0751C84.2062 63.0751 84.0299 63.0751 83.8535 63.0751V61.702C83.8535 61.5826 83.7948 61.4632 83.736 61.284C83.6772 61.0452 83.6184 60.9258 83.6184 60.9258C83.4421 60.3885 83.3245 59.9109 83.1482 59.3736C83.3245 59.3736 83.5009 59.3736 83.736 59.3736C83.8535 59.9109 84.0299 60.4482 84.1474 60.9855C84.265 60.4482 84.4413 59.9109 84.5589 59.3736C84.6765 59.3736 84.8528 59.3736 85.0879 59.3736Z" fill="white"/>
<path d="M90.3784 62.8354C90.3784 63.0742 90.2609 63.1936 90.0258 63.1936C89.6731 63.1936 89.2616 63.1936 88.9089 63.1936C88.6738 63.1936 88.5563 63.0742 88.5563 62.8354V59.7906C88.5563 59.5518 88.6738 59.4324 88.9089 59.4324C89.2616 59.4324 89.6731 59.4324 90.0258 59.4324C90.2609 59.4324 90.3784 59.5518 90.3784 59.7906V60.6862C90.2021 60.6862 90.0258 60.6862 89.8494 60.6862V59.9697C89.6143 59.9697 89.3792 59.9697 89.1441 59.9697V62.716C89.3792 62.716 89.6143 62.716 89.8494 62.716V61.9399C90.0258 61.9399 90.2021 61.9399 90.3784 61.9399V62.8354Z" fill="white"/>
<path d="M93.3174 63.3131C92.8471 63.3131 92.3769 63.2534 91.8479 63.2534V59.5519C92.0242 59.5519 92.2006 59.5519 92.3769 59.5519V62.7758C92.6708 62.7758 92.9647 62.7758 93.2586 62.8355V63.3131H93.3174Z" fill="white"/>
<path d="M96.6081 63.1346C96.6081 63.3734 96.4905 63.4928 96.2554 63.4331C95.844 63.4331 95.4913 63.3734 95.0798 63.3734C94.8447 63.3734 94.7272 63.254 94.7272 63.0152C94.7272 61.8809 94.7272 60.7466 94.7272 59.6122C94.9035 59.6122 95.0798 59.6122 95.2562 59.6122V62.8361C95.4913 62.8361 95.7264 62.8361 96.0203 62.8958V59.6719C96.1967 59.6719 96.373 59.6719 96.5493 59.7316V63.1346H96.6081Z" fill="white"/>
<path d="M99.3715 63.1939V62.1193C99.254 62.0596 99.1952 61.9999 99.0776 61.9402C98.9601 61.9402 98.7837 61.9402 98.6662 61.8805V63.1342C98.9013 63.1342 99.1364 63.1939 99.3715 63.1939ZM99.3715 61.2835V60.388C99.1364 60.388 98.9013 60.3283 98.6662 60.3283V61.4029C98.7837 61.4029 98.9601 61.4029 99.0776 61.4626C99.1952 61.4029 99.254 61.3432 99.3715 61.2835ZM99.9005 63.373C99.9005 63.6118 99.783 63.7312 99.5478 63.6715C99.0776 63.6118 98.5486 63.6118 98.0784 63.5521V59.8506C98.5486 59.9103 99.0188 59.9103 99.5478 59.9701C99.783 59.9701 99.9005 60.0895 99.9005 60.3283V61.2835C99.9005 61.4029 99.8417 61.5223 99.783 61.582C99.783 61.582 99.6654 61.6417 99.4891 61.7611C99.6654 61.8805 99.783 61.9402 99.783 61.9999C99.8417 62.0596 99.9005 62.179 99.9005 62.2984V63.373Z" fill="white"/>
<path d="M112.479 101.045C112.185 99.911 112.185 98.6572 112.479 97.4035C112.655 96.6274 113.067 95.911 113.361 95.1945C113.42 95.0154 113.537 94.8363 113.596 94.6572C113.596 94.4184 113.772 94.0602 113.949 93.9408C114.007 93.2244 113.949 92.2692 113.949 91.7319C114.007 90.8363 114.007 89.9408 114.066 89.0453C114.066 88.9856 114.007 88.9259 114.007 88.9259C113.89 88.6871 113.772 88.508 113.655 88.3289C113.302 87.9706 113.008 87.6124 112.655 87.2542C110.539 85.1647 110.539 81.9408 111.95 79.5527C111.597 79.3139 111.186 79.1348 110.716 78.9557C109.129 78.299 105.955 77.1647 102.957 77.1647H102.781C102.252 77.1647 101.723 77.2244 101.252 77.2841C98.137 77.8214 94.5515 78.896 93.9049 79.1945C93.1996 79.493 92.7293 79.9109 91.7301 81.1647L91.0247 82.0602L90.0255 81.5229C89.6728 81.3438 89.2614 81.1647 88.7911 80.9259C86.2636 79.6721 82.5018 77.702 78.446 75.0751L78.3872 75.0154C75.6834 73.2841 70.6871 69.5229 67.9245 67.3139C67.6894 67.4333 65.8085 67.6721 65.5734 67.7318C62.5756 68.3885 63.3985 70.4184 60.4596 70.5975C59.9306 70.6572 59.3428 70.6572 58.6374 70.6572C58.0496 70.6572 57.5206 70.6572 56.9328 70.6572C56.4038 70.6572 55.816 70.6572 55.287 70.6572C55.1694 70.6572 55.0519 70.6572 54.9343 70.6572C54.9343 70.7766 54.9343 70.896 54.9343 71.0751C54.9343 71.1348 54.9343 71.2542 54.9343 71.3736V71.493C54.9343 71.6721 54.9931 71.8512 54.9931 71.9706C55.0519 72.2094 55.0519 72.4482 55.1107 72.7467C55.1694 73.105 55.2282 73.4632 55.287 73.8811C55.5809 76.0303 55.8748 77.8214 56.2862 79.3736C56.6977 81.3438 57.2267 83.0751 57.8145 84.7468L57.8733 84.8065C57.8733 84.8662 57.8733 84.8662 57.9321 84.9259C57.9908 84.9856 57.9908 85.1647 58.0496 85.2244L58.226 85.5826C58.3435 85.8811 58.4611 86.1199 58.5786 86.4184C58.9313 87.1945 59.3428 87.9109 59.7542 88.6274C59.9893 89.0453 60.2832 89.5229 60.5771 89.9408L60.6359 90.0005L60.8122 90.2393C61.0474 90.4781 61.2237 90.7169 61.4588 90.9557C61.5764 91.1348 61.7527 91.2542 61.8703 91.4333C61.9878 91.493 62.1642 91.6124 62.2817 91.7319C62.3993 91.8513 62.5756 91.911 62.6344 91.9707C62.8107 92.0901 62.9871 92.2095 63.1634 92.2692C63.3397 92.3886 63.5749 92.508 63.7512 92.6871C65.1619 93.6423 66.2199 94.4781 67.1016 95.3736C69.394 97.7617 70.6871 100.568 71.9803 103.314C72.3917 104.209 72.8032 105.105 73.2734 105.941C73.3322 106.001 73.3322 106.06 73.391 106.18C73.4498 106.18 73.5673 106.18 73.6261 106.239C73.7437 106.239 73.8612 106.299 73.92 106.299C74.3315 106.299 74.8017 106.359 75.3307 106.359C75.6246 106.359 75.9773 106.359 76.2712 106.359C77.388 106.359 78.7987 106.299 80.2682 106.299C82.972 106.299 85.2644 106.418 87.4392 106.598C88.1446 106.657 88.7911 106.717 89.4965 106.777C93.2584 107.135 97.1966 107.493 101.017 107.493H101.252C101.781 107.493 102.369 107.493 102.957 107.433C103.016 107.433 103.074 107.433 103.074 107.433C103.545 107.314 104.015 107.254 104.485 107.135C105.132 107.015 105.72 106.896 106.249 106.777C107.071 106.598 107.953 106.359 108.776 106.12C109.481 105.941 110.187 105.762 110.951 105.583C110.775 105.045 110.539 104.508 110.304 103.911L109.834 102.657L111.068 102.18C111.597 101.702 112.009 101.404 112.479 101.045Z" fill="white"/>
<path d="M119.355 87.4926C118.767 87.1344 118.121 86.8359 117.533 86.4777C117.298 86.2986 117.239 86.0597 117.357 85.8806C115.77 85.0448 114.124 84.3284 114.124 84.2687C114.594 83.0747 113.83 82.2985 113.066 81.8209C112.302 81.3433 111.302 80.6269 110.244 80.1493C109.01 79.6717 105.895 78.4777 103.014 78.4777H102.838C102.368 78.4777 101.898 78.5374 101.486 78.5971C98.4297 79.1344 95.0205 80.1493 94.3739 80.4478C93.7861 80.6866 93.3159 81.2239 92.0228 82.9553C91.7877 83.2538 91.6113 83.5523 91.3762 83.8508C90.906 83.4329 90.0243 83.015 88.2609 82.1194C85.6746 80.7463 81.854 78.7762 77.7394 76.0896C70.2745 71.3732 62.4568 64.6866 57.343 58.597C55.6972 56.7463 54.2277 54.8358 52.9934 53.2836C52.4056 52.5672 51.8766 51.8507 51.4651 51.3731C51.4063 51.3134 51.3476 51.194 51.23 51.0746C51.1124 50.9552 51.0537 50.8955 50.9949 50.7761C50.9361 50.7164 50.9361 50.7164 50.8773 50.6567L50.8185 50.597C50.2308 50.1194 49.7017 50 49.3491 50C48.1735 50 47.4094 51.0149 47.233 52.0299V52.1493V52.209C46.9979 54.4179 46.8803 58.8955 47.2918 61.8209C47.0567 62 46.8216 62.1791 46.6452 62.4179C46.3513 62.8358 46.0574 63.4926 46.1162 64.1493C46.1162 64.3284 46.1162 64.7463 46.2338 65.9403C46.2925 66.597 46.4101 67.9105 46.6452 69.4627C46.9979 71.9702 47.4094 73.8209 47.8208 74.9553C47.762 74.9553 47.7032 75.0747 47.6445 75.1344C47.233 75.612 47.0567 76.2687 47.1742 76.8657C47.1742 76.9851 47.233 77.0448 47.233 77.1642C47.5269 78.6568 48.8201 83.1344 50.172 85.6418C50.172 85.7015 50.1132 85.7015 50.1132 85.7612C49.7605 86.3583 49.7017 87.0747 49.9956 87.612C52.0529 92.2687 53.6987 95.015 54.9331 95.7911C55.227 95.9702 55.6972 96.209 56.285 96.3881C56.285 96.6269 56.4026 96.806 56.4613 97.0448C56.4613 97.1045 56.5201 97.1642 56.5201 97.2239C56.814 98.2389 59.9881 102.119 61.5164 103.552C61.4576 103.612 61.4576 103.731 61.3988 103.791C61.34 103.97 61.3988 104.209 61.5751 104.508C61.6339 104.567 61.6927 104.627 61.7515 104.746C61.7515 104.806 61.8103 104.806 61.869 104.925C62.3393 105.522 63.8087 107.254 65.2782 108.209C65.4546 109.105 66.3363 109.642 66.5714 109.821C66.9828 110.06 70.4508 112.03 73.1546 112.209C73.9188 112.866 75.2707 112.925 75.5646 112.925C75.9173 112.925 76.3287 112.925 76.7402 112.925C77.6219 112.925 78.5035 112.866 79.2677 112.866C80.0906 112.806 81.6188 112.746 82.6181 112.567C83.1471 112.866 83.9112 113.045 84.6166 113.045H84.6754C84.7929 113.045 84.8517 113.045 84.9693 113.045C85.7922 112.985 88.496 112.746 89.6128 112.328C90.3769 112.03 91.3762 111.075 92.6106 109.403L92.9045 109.582L93.0808 109.045C95.1968 109.522 99.3114 110.418 100.193 110.537C104.249 111.314 108.069 111.851 108.657 111.851H108.775C109.363 111.851 109.774 111.731 110.127 111.433C111.008 110.717 110.832 109.761 110.656 108.866C110.362 107.672 109.657 105.582 108.363 102.299C108.069 101.522 107.07 99.015 106.835 98.6568C106.541 98.2389 106.247 97.7613 106.012 97.2836C105.777 96.6866 106.659 96.1493 106.894 96.7463C107.247 97.5225 107.834 98.2389 108.128 99.015C108.363 99.4926 108.54 99.8508 109.01 100.09C109.186 100.209 109.363 100.328 109.598 100.388C109.598 100.269 109.657 100.149 109.715 100.09C109.892 99.9105 110.244 99.9105 110.421 100.09C110.538 100.209 110.597 100.269 110.715 100.388C111.244 99.9105 112.537 98.7762 113.125 97.7613C113.183 97.5225 113.242 97.3433 113.183 97.1045C112.948 97.2836 112.595 97.3433 112.36 97.0448C112.066 96.6269 111.42 96.6269 110.95 96.5672C110.479 96.5075 110.362 96.0299 110.538 95.7314C109.892 95.6717 109.304 95.612 108.716 95.3732C107.129 94.6568 109.774 92.6866 110.597 92.5672C112.948 92.1493 115.064 96.209 117.063 93.5821C117.18 93.403 117.298 93.1642 117.415 92.9851C117.298 92.8657 117.239 92.6866 117.298 92.5075C117.474 92.0896 117.651 91.612 117.651 91.1941C117.651 90.5971 118.473 90.5374 118.65 90.9553C118.885 90.6568 119.061 90.3583 119.238 90.0598C119.414 89.7015 119.708 89.2836 119.884 88.9254C120.178 88.0896 120.002 87.9105 119.355 87.4926Z" fill="black"/>
<path d="M79.4452 79.5532C79.4452 79.5532 57.1091 63.4934 56.9328 62.4785C56.7564 61.5233 49.5266 50.5979 49.0564 52.1501C48.6449 53.7024 48.9388 63.4934 48.9388 63.4934C48.9388 63.4934 47.9396 62.8964 47.7044 63.7322C47.4105 64.5084 49.9381 75.6129 49.9381 75.6129C49.9381 75.6129 48.1159 76.389 48.4098 77.4039C48.6449 78.4188 51.2312 86.18 51.2312 87.0159C51.2312 87.8517 54.1114 95.0756 56.5801 95.3144C59.0488 95.5532 57.6381 96.9263 57.8732 97.4039C58.0496 97.8815 61.8702 102.956 62.3405 103.076C62.8107 103.195 64.5741 106.777 66.2199 107.374C67.8657 108.031 71.6864 112.15 76.1536 111.434C80.562 110.717 91.6125 106.598 91.6125 106.598C91.6125 106.598 108.894 111.732 109.246 110.419C109.599 109.105 104.955 97.583 104.955 97.583L107.013 94.5382L112.068 89.6427L116.77 92.9263C116.77 92.9263 119.062 88.1502 119.004 87.9711C118.886 87.7323 114.066 85.1651 113.596 84.986C113.126 84.8069 114.713 84.6278 112.303 83.0755C109.893 81.5233 103.545 79.8517 103.545 79.8517L97.3729 80.9263C97.3729 80.9263 94.0812 83.195 94.1988 83.2547C94.3163 83.3144 92.0827 85.8815 92.0827 85.8815L90.0842 84.7472L79.4452 79.5532Z" fill="#FEF7E5"/>
<path d="M118.533 88.9849C118.886 88.4476 118.592 88.3281 118.357 88.0893C117.005 86.955 113.596 88.2684 112.42 86.1192C111.891 85.2834 112.303 84.8655 112.009 84.8058C111.715 84.7461 111.656 85.5222 111.656 85.5222C111.656 85.5222 111.421 85.164 111.186 85.6416C110.833 86.2983 109.54 87.6714 108.776 85.9998C108.541 85.6416 108.012 85.7013 107.424 85.8804C108.364 84.9252 108.893 84.9849 108.893 84.9849C109.657 84.6266 109.011 84.5072 108.717 84.3878C109.599 84.3281 111.245 83.2535 110.598 83.4923C109.187 84.0296 109.481 81.7013 104.132 80.5669C102.663 80.2684 107.6 83.9699 108.012 84.3281C106.836 84.8058 103.015 86.5968 102.839 86.7162C102.78 86.7759 100.37 88.0893 101.252 88.0893C100.841 88.5073 104.485 87.9699 105.19 87.9699C105.896 87.9699 106.425 88.567 107.894 89.1043C106.895 88.9252 107.659 88.8058 107.071 88.7461C105.719 88.6267 103.133 89.6416 102.78 89.8207C102.78 89.8207 101.722 91.1938 101.37 91.7908C100.253 91.0147 97.0787 88.2087 96.9612 88.149C96.726 88.0893 95.9619 89.164 95.6092 89.2237C95.2566 89.2834 94.61 92.6267 94.1398 93.9998C93.7871 94.955 92.7291 97.3431 92.3176 98.8356L89.555 92.5073L90.3191 85.5819C90.3191 85.5819 87.145 83.3132 87.2038 82.955C87.2626 82.5371 81.9725 98.2386 81.9725 98.2386C80.4442 96.8655 82.2664 85.6416 81.4434 83.6117C80.9732 82.5371 79.3274 80.4475 77.8579 78.7162C76.3297 75.7908 67.3364 70.5371 67.3364 70.5371L62.0463 66.2386C62.0463 66.2386 62.8104 68.0296 63.7509 69.9401C60.2242 66.7162 57.1676 63.9699 57.1676 63.9102C57.1089 63.6117 50.5256 53.8803 49.4676 52.3878C49.4088 52.2684 49.2324 52.2684 49.2324 52.3281C49.35 53.8206 51.0546 60.0296 51.8775 61.7012C53.2294 64.5669 66.8074 80.0893 76.9174 84.2087L77.564 84.7461C77.564 84.7461 76.3884 83.9102 76.0358 83.9699C75.6831 83.9699 69.1586 80.746 69.041 80.746C68.9235 80.746 63.2219 76.9848 63.2219 76.9848L65.7494 80.8654C62.6929 78.6565 60.2829 76.8654 60.2829 76.8654L50.8783 65.5818L49.1737 63.3729C49.1737 63.3729 48.4095 63.4326 48.4683 63.7908C48.821 65.9998 51.1722 71.0147 52.289 72.8057C53.4645 74.5968 61.5173 83.3729 75.7419 89.0446C75.7419 89.0446 75.8006 89.0446 75.8594 88.9849L76.506 89.4625C76.506 89.4625 76.8587 90.4774 76.3297 90.358C75.8006 90.2386 70.2754 87.3132 70.2754 87.3132L65.3967 85.6416L49.4088 76.5072C49.4088 76.5072 53.2294 82.7759 55.1691 84.4475C57.5791 86.5968 73.0968 93.2834 76.1533 93.8207H76.2121L74.8602 93.8804L68.5708 92.4476L68.6296 92.5073C61.1646 89.9998 55.9333 88.149 52.0538 86.8356C51.7012 86.7162 56.1096 91.7311 58.1081 92.8655C60.1654 94.0595 69.9815 97.1043 76.3297 97.761C76.5648 97.761 76.7411 97.761 76.9174 97.761H76.9762C77.1526 97.8207 77.4465 98.1789 77.035 98.2983C76.6236 98.4774 58.1669 95.8505 58.1669 95.8505L58.402 96.2088C58.402 96.2088 61.87 99.7311 63.8685 100.209C68.6884 101.343 78.7984 100.746 78.7984 100.746L62.4578 102.716L62.8692 103.074C62.8692 103.074 65.6318 106.597 67.3952 106.836C70.1578 107.194 82.4427 103.134 82.4427 103.134L67.2777 107.91C67.2777 107.91 71.2746 110.597 72.6266 110.477C77.3877 110.179 85.3229 106 85.3229 106L76.2709 110.179L75.6831 111.194H85.4992L90.4954 109.761L92.0825 107.254L93.6107 107.313L95.9619 107.791L93.6107 102.06L93.0817 100.865C95.3741 102.955 100.958 108.686 100.958 108.686L104.367 109.283C104.25 109.283 103.721 106.955 103.838 107.015C104.132 107.134 106.131 107.97 106.248 107.791C106.483 107.492 105.014 101.94 103.544 97.8207C103.133 96.4476 103.074 96.1491 104.602 97.4625C106.131 98.7759 103.897 95.4326 103.192 93.6416C103.721 94.0595 105.131 95.0744 105.19 95.1938C105.249 95.6714 107.071 94.5968 107.13 94.2983C107.189 94.0595 112.185 90.8356 113.361 89.9998C113.831 90.1789 114.125 90.4177 114.183 90.7162C114.301 91.4326 114.242 93.1043 114.712 93.2237C115.183 93.3431 115.829 92.9849 116.064 92.6864C116.593 92.0893 116.417 90.7162 116.064 89.8804C115.712 89.0446 116.241 88.3878 116.241 88.3878C118.416 88.8058 117.475 89.7013 117.887 89.6416C118.063 89.7013 118.239 89.4625 118.533 88.9849Z" fill="#F8C730"/>
<path d="M98.6081 86.0605C99.6661 86.4784 100.371 85.5829 101.782 85.6426C103.193 85.7023 104.016 85.3441 104.662 84.9859C105.309 84.6277 104.251 85.3441 104.133 85.0456C104.133 84.0904 100.019 83.7322 97.4325 83.6725C97.2562 83.6725 96.6684 83.5531 96.4921 83.2546C96.4333 83.1949 96.5508 83.6725 96.4921 83.6725C97.1386 83.6725 97.7264 85.7023 98.6081 86.0605Z" fill="#F8C730"/>
<path d="M117.828 89.4625C117.828 88.9849 117.181 88.8058 117.181 88.8058C117.181 88.8058 117.416 90.776 116.299 92.5073C116.064 92.8655 115.829 93.0446 115.535 93.1043C115.359 93.164 115.182 93.1043 115.065 93.1043C116.828 92.4476 114.36 90.1193 115.065 88.6864C115.476 87.7909 109.187 90.1789 109.246 88.6267C109.246 87.4327 107.894 86.5969 101.487 87.97C101.311 88.0297 107.306 84.2088 108.54 84.6864C108.658 84.7461 108.364 84.9252 108.129 85.164C107.776 85.5222 107.776 85.5819 107.835 85.5222C109.305 84.9849 108.952 86.8357 110.95 85.4625C111.656 84.9849 111.421 85.9998 112.361 86.1192C112.361 86.1192 112.067 85.4625 112.244 84.9849C112.185 85.2237 112.89 85.4625 113.008 85.5222C114.477 86.0595 116.417 86.7163 118.004 87.9103C118.474 88.2685 118.592 88.5073 118.474 88.8058C118.415 89.0446 117.828 89.4625 117.828 89.4625ZM106.424 94.5372C106.189 94.5969 105.895 93.2237 106.895 92.5073C107.247 92.2088 106.424 92.567 105.308 92.7461C103.368 92.9849 102.075 91.4327 101.898 91.0148C102.956 91.373 107.306 90.2984 107.306 90.2984C107.306 90.2984 106.013 91.0745 105.19 91.4327C104.955 91.5521 107.424 91.4327 111.95 90.1192C112.42 89.9998 112.361 90.2387 111.773 90.5372C108.893 92.1491 107.13 93.5819 106.424 94.5372ZM108.54 109.522C108.54 109.522 105.366 109.343 102.133 108.627C101.487 107.552 98.0777 102.179 96.138 98.8954C94.7273 96.4476 100.782 102.657 102.721 104.507C104.485 106.179 105.014 106.418 103.485 102.895C102.427 100.388 97.0785 90.1192 96.8434 88.8655C97.4899 89.5819 98.9594 91.373 98.9594 91.373C99.4884 92.0297 102.427 97.761 102.721 98.1193C103.074 98.4775 102.134 94.179 102.31 94.2387C102.369 94.2984 103.015 94.8954 103.485 95.4924C104.25 96.6267 108.247 107.552 108.54 109.522ZM83.7944 97.2834C83.6768 96.6267 88.3792 86.2983 88.6143 85.761C88.7906 85.4028 88.6731 85.164 88.2028 84.7461C88.2028 84.7461 87.615 84.2685 87.9677 84.3879C88.8494 84.8058 89.4372 85.164 89.5548 85.3431C89.6723 85.4625 89.7899 85.761 89.1433 87.8506C88.7318 89.2834 86.2043 96.3879 86.0868 97.164C86.028 98.5372 93.0815 103.731 93.0815 103.731C92.5525 103.672 83.7944 98.2387 83.7944 97.2834ZM89.0845 110.358C88.5555 110.537 86.8509 110.776 85.3227 110.895C85.1463 110.895 85.0288 110.836 84.9112 110.776C86.6746 110.179 89.5548 108.925 91.3181 107.612C90.4364 108.925 89.3784 110.179 89.0845 110.358ZM76.0355 110.776C75.918 110.776 75.918 110.716 76.0355 110.657C79.0921 110.119 84.8524 108.328 88.0853 106.657C85.9692 108.448 83.5593 110.239 82.6776 110.418C81.3844 110.657 78.1516 110.776 76.0355 110.776ZM67.7477 107.91C67.6889 107.851 67.924 107.91 67.924 107.91H67.9828C71.0393 108.627 79.5035 107.194 84.7349 105.343C80.2676 107.672 74.8012 110.06 73.8019 110.06C71.8034 110.119 68.5706 108.388 67.7477 107.91ZM67.2187 106.716C66.1606 106.358 63.4568 103.552 63.4568 103.552C66.4545 103.791 74.3897 104.149 81.7959 103.254C74.8012 105.403 67.9828 106.895 67.2187 106.716ZM58.4606 96.2685C62.0461 98.4775 71.9798 100.925 78.8569 100.806C70.9805 101.821 63.6919 102.298 62.9866 101.88C61.7522 101.224 59.1071 97.5819 58.4606 96.2685ZM56.1094 93.9998C55.1101 93.3431 52.9941 89.4625 51.9948 86.9551C51.9948 86.8954 51.9948 86.8954 51.9948 86.8954C54.2872 88.9252 64.456 95.6715 76.3294 97.8805C69.0408 97.3431 57.7552 95.1342 56.1094 93.9998ZM49.291 76.8058C49.2322 76.6267 49.3498 76.2088 49.7025 76.7461C55.4628 84.3879 68.453 91.2536 75.4477 93.5222C64.6912 91.3133 53.3468 86.3581 52.759 85.6416C51.7009 84.6864 49.9376 79.5521 49.291 76.8058ZM48.1742 64.2685C48.1742 63.4923 48.7032 63.6118 48.8208 63.9103C54.2285 75.4327 67.7477 85.7013 75.7416 88.9849C63.8682 85.164 50.6429 75.97 50.1139 74.6565C49.2322 73.5222 48.2918 67.0744 48.1742 64.2685ZM49.1734 52.6864C49.2322 52.3282 49.3498 52.3282 49.5261 52.6267C54.5811 66.4774 68.3355 79.7312 76.447 83.97C63.8095 78.6565 49.5849 64.5073 49.5261 62.6565C48.9971 60.9252 48.9383 56.0297 49.1734 52.6864ZM64.3385 77.8804C65.3965 78.5968 66.4545 79.3133 67.5713 80.0297C71.392 83.1342 71.8034 85.3431 78.9157 90.1192H78.8569C74.7424 87.7909 68.1591 83.0745 64.3385 77.8804ZM78.0928 94.0596C74.8012 92.567 69.9225 89.7013 66.5721 86.0595C67.6889 86.5969 68.8645 87.0745 69.9813 87.5521C73.0966 89.4625 72.9202 91.0148 78.5043 94.179C78.3279 94.1193 78.2104 94.1193 78.0928 94.0596ZM78.9745 97.9402C78.9157 97.9402 78.8569 97.9402 78.8569 97.9402C76.0355 96.8058 72.5676 95.0745 69.6874 92.8655C70.5103 93.1043 71.3332 93.2834 72.1561 93.5222C75.1538 94.8954 75.2126 96.1491 78.9745 97.9402ZM67.8064 71.5521C71.4508 75.5521 71.5095 78.5371 79.5035 85.3431C79.3272 85.2834 79.2096 85.2237 79.0333 85.164C74.8012 82.4177 66.3957 74.7162 62.6927 67.1341C64.2797 68.6267 65.9843 70.1192 67.8064 71.5521ZM78.034 78.776C79.7386 80.4476 82.4425 82.8357 82.7951 83.8506C83.3242 85.5819 81.2081 96.6267 81.6783 97.7013C82.031 98.7163 84.7936 100.627 87.9089 102.477C86.2043 102 80.1501 98.776 80.1501 97.761C79.7974 96.7461 80.2089 93.8207 80.5615 91.0148C80.973 87.8506 81.4432 84.8655 81.0905 83.6715C80.7967 82.6566 79.5035 80.8655 77.8577 78.6565C77.9165 78.6565 77.9753 78.7162 78.034 78.776ZM96.5495 82.4774C98.2541 82.5372 101.957 83.5521 103.485 84.1491C104.132 84.3879 104.191 85.0446 104.073 84.9849C103.133 84.5073 101.252 85.2237 99.606 85.4625C98.0777 85.7013 97.4312 84.5073 96.3731 83.1342C96.1968 83.0148 96.138 82.4774 96.5495 82.4774ZM111.891 83.4327C111.421 83.2536 110.95 83.1939 110.421 83.5521C109.246 84.2685 108.658 83.8506 108.247 83.3133C107.13 81.7013 104.014 80.567 104.014 80.567C106.072 80.7461 108.129 81.5222 109.775 82.2386C110.656 82.5969 111.597 83.0745 111.891 83.4327ZM120.002 87.9103C119.767 87.4327 119.238 86.6566 117.005 85.5222C115.888 84.9252 114.771 84.5073 114.124 84.2088C114.183 84.0297 114.242 83.7909 114.183 83.5521C114.124 83.0148 113.713 82.5371 112.714 81.9401C112.008 81.4625 111.009 80.9849 110.01 80.567C108.776 80.0894 105.66 78.8954 102.839 78.9551C102.369 78.9551 101.957 79.0148 101.546 79.0745C98.548 79.6118 95.1976 80.6267 94.551 80.8655C94.0807 81.0446 93.6693 81.6416 92.4349 83.2536C92.0823 83.6715 91.7296 84.1491 91.3769 84.6864C91.2006 84.1491 90.6128 83.8506 88.0265 82.5371C85.499 81.2237 81.6196 79.3133 77.505 76.567C70.0401 71.8506 62.1636 65.1043 56.9911 58.955C55.3453 57.1043 53.817 55.1341 52.5826 53.5819C51.9948 52.8058 51.4658 52.1491 51.0544 51.6714C50.9956 51.6117 50.9368 51.4923 50.8193 51.4326C50.7017 51.2535 50.6429 51.1938 50.5254 51.1341C50.5254 51.0744 50.4666 51.0744 50.4666 51.0147L50.4078 50.955C49.9964 50.5968 49.5849 50.5371 49.291 50.5371C48.4093 50.5371 47.8215 51.4326 47.7627 52.0894C47.7627 52.0894 47.7627 52.0893 47.7627 52.1491V52.2088V52.2685C47.5276 54.8953 47.4101 59.4923 47.8215 62.1192C47.5276 62.2386 47.2337 62.4774 46.9986 62.7162C46.7635 63.0744 46.5872 63.6715 46.5872 64.0894C46.5872 64.3282 46.5872 64.7461 46.7047 65.8207C46.7635 66.4774 46.8811 67.7312 47.1162 69.2834C47.5864 72.7461 48.0566 74.2386 48.4093 75.0148C48.233 75.1342 48.1154 75.2536 47.9979 75.373C47.704 75.7312 47.5276 76.2088 47.6452 76.6864C47.6452 76.7461 47.704 76.8655 47.704 76.9252C47.9979 78.4177 49.3498 83.1939 50.7605 85.5819C50.6429 85.7013 50.5841 85.8207 50.5254 85.9401C50.2902 86.3581 50.2315 86.8954 50.4078 87.3133C51.7597 90.4775 53.6994 94.3581 55.1101 95.2536C55.4628 95.4327 55.9918 95.6715 56.6972 95.9103C56.6384 96.2685 56.756 96.567 56.8735 96.9252C57.1674 97.8805 60.9293 102.537 62.1636 103.433C62.1636 103.492 61.5759 103.672 61.8698 104.089C61.9285 104.149 61.9873 104.209 62.0461 104.269C62.2812 104.507 64.0446 106.776 65.7492 107.731V107.791C65.808 108.567 66.6896 109.104 66.866 109.224C67.1011 109.343 70.7454 111.492 73.4493 111.552C74.0958 112.269 75.5653 112.269 75.6829 112.269C76.0355 112.269 76.447 112.269 76.8584 112.269C77.7401 112.269 78.563 112.209 79.3272 112.209C80.2089 112.149 81.8547 112.089 82.7951 111.91C83.3242 112.269 84.1471 112.388 84.7936 112.388C84.9112 112.388 84.97 112.388 85.0875 112.388C85.6753 112.328 88.4967 112.089 89.6135 111.731C90.3777 111.492 91.3769 110.418 92.6701 108.567L92.8464 108.686L92.9639 108.328C94.9037 108.806 99.5472 109.761 100.488 109.88C104.661 110.716 108.423 111.194 108.834 111.194H108.952C109.422 111.194 109.716 111.134 109.951 110.895C110.539 110.418 110.48 109.761 110.304 108.866C110.01 107.731 109.305 105.642 108.011 102.418C107.424 100.925 106.953 99.7312 106.542 98.776C108.188 99.97 109.598 100.686 110.363 100.686C110.421 100.686 110.421 100.686 110.48 100.686C111.068 100.627 111.773 100.03 113.066 98.6566C113.184 98.5372 113.243 98.4775 113.302 98.4178L113.36 98.3581C113.537 98.179 114.066 97.6416 113.595 96.7461C113.478 96.567 113.36 96.3282 111.832 95.6715C111.244 95.4327 110.186 95.0148 108.952 94.7163C108.952 94.7163 108.952 94.6566 109.011 94.6566C109.363 94.0596 110.715 93.0446 111.421 92.6267C111.479 92.6267 111.479 92.6267 111.479 92.6267C111.715 92.6267 112.244 92.9849 112.773 93.3431C112.89 93.4028 113.008 93.5222 113.184 93.5819C113.184 94.0596 113.184 94.6566 112.949 95.2536C112.89 95.4327 112.949 95.6715 113.066 95.6715C113.184 95.6715 114.007 95.0148 114.653 94.3581C114.889 94.4178 115.182 94.4775 115.476 94.4775C115.594 94.4775 115.77 94.4775 115.888 94.4178C116.534 94.2387 117.122 93.8207 117.592 93.164C118.121 92.3282 118.357 91.6715 118.474 91.1342C118.944 90.7163 119.826 89.8804 120.12 88.9252C120.179 88.8058 120.237 88.3879 120.002 87.9103Z" fill="black"/>
<path d="M124 125.045C98.1372 120.866 71.8629 120.866 46 125.045V100.627H124V125.045Z" fill="black"/>
<path d="M46 100.627L48.6451 103.373V121.881L46 125.045V100.627Z" fill="#F8C730"/>
<path d="M123.999 100.627L121.296 103.373V121.881L123.999 125.045V100.627Z" fill="#F8C730"/>
<path d="M60.1074 103.373C58.6967 108.089 57.2272 112.985 55.8165 117.94C56.8746 117.88 57.9914 117.761 59.0494 117.701C59.4021 117.224 59.7547 116.686 60.1074 116.209C60.1074 117.582 60.1074 118.895 60.1074 120.268C57.5211 120.507 54.9936 120.746 52.4073 120.985C53.818 115.85 55.2875 110.895 56.6982 106.059C55.6402 106.059 54.5234 106.119 53.4654 106.119C53.1127 106.597 52.76 107.134 52.4073 107.612V103.373H60.1074Z" fill="white"/>
<path d="M60.1074 120.209L59.5784 118.896L54.2883 119.314L52.4073 120.985L60.1074 120.209Z" fill="#C9C8C8"/>
<path d="M56.757 106.06L58.4616 104.687L54.2883 119.314L52.4073 120.985L56.757 106.06Z" fill="#C9C8C8"/>
<path d="M52.4073 103.373L52.9364 104.686H58.4616L56.757 106.059L53.4654 106.119L52.4073 107.552V103.373Z" fill="#C9C8C8"/>
<path d="M68.2184 103.373C68.7474 103.97 69.2764 104.627 69.8054 105.224C69.8054 109.462 69.8054 113.701 69.8054 117.94C70.0405 118.477 70.2757 119.074 70.5108 119.612C69.394 119.671 68.336 119.731 67.2191 119.791C67.2191 115.194 67.2191 110.597 67.2191 106C66.5138 106 65.8084 106 65.1619 106C65.1619 108.089 65.1619 110.119 65.1619 112.209C65.8672 112.209 66.5726 112.149 67.2191 112.149C66.5138 112.985 65.8084 113.821 65.1619 114.656C65.1619 116.388 65.1619 118.179 65.1619 119.91C64.0451 119.97 62.987 120.089 61.8702 120.149C62.1054 119.552 62.3405 118.955 62.5756 118.358C62.5756 114 62.5756 109.642 62.5756 105.283C63.1046 104.627 63.6336 104.03 64.1626 103.373H68.2184Z" fill="white"/>
<path d="M65.1032 119.85L63.81 118.239L63.8688 105.582L64.6917 104.686L64.1627 103.373L62.5757 105.283V118.298L61.8115 120.089L65.1032 119.85Z" fill="#C9C8C8"/>
<path d="M67.2195 112.09L65.1034 114.597L63.8103 113.821L67.2195 112.09Z" fill="#C9C8C8"/>
<path d="M70.5109 119.553L68.4536 118V105.582L67.6895 104.687H64.6918L65.162 105.941H67.2193V119.732L70.5109 119.553Z" fill="#C9C8C8"/>
<path d="M77.6236 103.373C78.1526 103.97 78.6816 104.567 79.2106 105.164C79.2106 105.881 79.2106 106.657 79.2106 107.373C78.3289 107.373 77.506 107.373 76.6243 107.373C76.6243 106.836 76.6243 106.358 76.6243 105.821C75.919 105.821 75.2136 105.821 74.5671 105.821C74.5671 106.896 74.5671 107.911 74.5671 108.985C75.5663 108.985 76.6243 108.985 77.6236 108.926C78.1526 109.523 78.6816 110.12 79.2106 110.717C79.2106 112.926 79.2106 115.135 79.2106 117.344C78.6816 117.941 78.1526 118.597 77.6236 119.194C76.2717 119.254 74.9197 119.254 73.6266 119.314C73.0976 118.717 72.5686 118.12 72.0396 117.523C72.0396 116.866 72.0396 116.209 72.0396 115.552C72.9212 114.597 73.7441 113.642 74.6258 112.747C74.6258 114.06 74.6258 115.433 74.6258 116.747C75.3312 116.747 76.0365 116.687 76.6831 116.687C76.6831 114.896 76.6831 113.164 76.6831 111.373C75.6839 111.373 74.6258 111.433 73.6266 111.433C73.0976 110.836 72.5686 110.239 72.0396 109.642C72.0396 108.15 72.0396 106.597 72.0396 105.105C72.5686 104.508 73.0976 103.851 73.6266 103.254H77.6236V103.373Z" fill="white"/>
<path d="M71.98 115.672L73.3907 115.552V117.224L74.0373 118.119H77.1526L77.9167 117.164L79.2098 117.403L77.564 119.254L73.567 119.433L71.98 117.642V115.672Z" fill="#C9C8C8"/>
<path d="M76.6235 116.806L77.9167 117.104V111.134L77.0938 110.239H74.096L73.3319 109.403V105.522L74.096 104.627L73.567 103.373L71.98 105.224V109.761L73.567 111.552L76.6235 111.492V116.806Z" fill="#C9C8C8"/>
<path d="M79.21 107.373H76.6237V105.881H74.5664L74.0962 104.627H77.0939L77.9756 105.463V106.239L79.21 107.373Z" fill="#C9C8C8"/>
<path d="M88.556 103.373C88.556 104.627 88.556 105.88 88.556 107.194C88.2034 106.776 87.8507 106.298 87.498 105.88C86.969 105.88 86.4988 105.88 85.9697 105.88C85.9697 109.761 85.9697 113.642 85.9697 117.582C86.2049 118.119 86.44 118.656 86.7339 119.253C85.382 119.253 84.03 119.253 82.6781 119.253C82.9132 118.716 83.1483 118.119 83.4422 117.582C83.4422 113.701 83.4422 109.761 83.4422 105.88C82.9132 105.88 82.443 105.88 81.914 105.88C81.5613 106.298 81.2086 106.776 80.856 107.194C80.856 105.94 80.856 104.627 80.856 103.373H88.556Z" fill="white"/>
<path d="M86.7339 119.134L84.7354 118.179V104.686H81.4437L80.9147 103.373L80.856 107.134L81.914 105.821H83.4422V117.522L82.7369 119.194L86.7339 119.134Z" fill="#C9C8C8"/>
<path d="M86.0282 105.821L84.7351 104.687H88.0267L88.6145 107.135L87.5565 105.821H86.0282Z" fill="#C9C8C8"/>
<path d="M95.845 103.373C96.3741 103.97 96.9031 104.567 97.4321 105.224C97.4321 109.403 97.4321 113.582 97.4321 117.761C97.6672 118.298 97.9023 118.895 98.1962 119.492C97.0794 119.433 96.0214 119.433 94.9046 119.373C94.9046 114.895 94.9046 110.418 94.9046 105.94C94.1992 105.94 93.4939 105.94 92.8473 105.94C92.8473 107.91 92.8473 109.94 92.8473 111.91C93.5526 111.91 94.258 111.91 94.9046 111.91C94.1992 112.686 93.4939 113.462 92.8473 114.239C92.8473 115.91 92.8473 117.642 92.8473 119.313C91.7305 119.313 90.6725 119.253 89.5557 119.253C89.7908 118.716 90.0259 118.179 90.261 117.582C90.261 113.462 90.261 109.343 90.261 105.224C90.79 104.627 91.319 104.03 91.8481 103.433H95.845V103.373Z" fill="white"/>
<path d="M92.7888 119.253L91.4957 117.582V105.522L92.3186 104.627L91.8484 103.373L90.2613 105.164V117.522L89.4972 119.194L92.7888 119.253Z" fill="#C9C8C8"/>
<path d="M92.7876 114.179L91.4945 113.344L94.9037 111.851L92.7876 114.179Z" fill="#C9C8C8"/>
<path d="M92.3176 104.627L92.7879 105.821H94.9039V119.314L98.1955 119.433L96.2558 117.702L96.1971 105.523L95.3741 104.627H92.3176Z" fill="#C9C8C8"/>
<path d="M108.247 103.373C108.012 103.97 107.776 104.508 107.541 105.105C106.66 110.06 105.778 114.956 104.896 119.791C104.015 119.732 103.074 119.672 102.192 119.612C101.311 114.717 100.429 109.821 99.4886 104.985C99.2534 104.448 99.0183 103.851 98.7832 103.314H101.898C102.428 106.239 102.957 109.224 103.544 112.209C104.073 109.284 104.602 106.299 105.131 103.314H108.247V103.373Z" fill="white"/>
<path d="M98.7832 103.373L100.664 104.209L103.544 118.179L104.896 119.791L102.192 119.612L99.5473 105.045L98.7832 103.373Z" fill="#C9C8C8"/>
<path d="M105.132 103.373L106.425 104.268L103.545 118.179V112.209L105.132 103.373Z" fill="#C9C8C8"/>
<path d="M115.301 103.373C115.83 104.03 116.359 104.687 116.888 105.403C116.888 109.941 116.888 114.538 116.888 119.075C117.123 119.732 117.358 120.329 117.593 120.985C116.476 120.866 115.418 120.747 114.301 120.627C114.301 115.791 114.301 110.896 114.301 106.06C113.596 106.06 112.891 106.06 112.244 106C112.244 108.15 112.244 110.299 112.244 112.388C112.949 112.448 113.655 112.448 114.301 112.508C113.596 113.344 112.891 114.12 112.244 114.956C112.244 116.747 112.244 118.597 112.244 120.388C111.127 120.269 110.069 120.209 108.952 120.09C109.188 119.553 109.423 118.956 109.658 118.418C109.658 114 109.658 109.642 109.658 105.224C110.187 104.567 110.716 103.97 111.245 103.314H115.301V103.373Z" fill="white"/>
<path d="M112.303 120.448L110.951 118.537V105.642L111.774 104.627L111.303 103.373L109.716 105.283V118.418L109.011 120.149L112.303 120.448Z" fill="#C9C8C8"/>
<path d="M112.244 114.955L110.951 113.821L114.36 112.567L112.244 114.955Z" fill="#C9C8C8"/>
<path d="M117.651 120.985L115.653 118.956V105.702L114.889 104.567L111.773 104.627L112.244 106L114.36 106.06V120.627L117.651 120.985Z" fill="#C9C8C8"/>
<path d="M84.97 131.91L85.499 132.984L86.6159 133.104L85.7929 133.94L86.0281 135.074L84.97 134.537L83.9708 135.074L84.1471 133.94L83.3242 133.104L84.4998 132.984L84.97 131.91Z" fill="white"/>
<path d="M76.5061 128.507V128.567H76.271V128.507C76.271 128.268 76.2122 128.149 76.0358 128.149C75.8595 128.149 75.8007 128.268 75.8007 128.447C75.8007 128.985 76.5649 129.044 76.5649 129.641C76.5649 130 76.3885 130.238 76.0358 130.238C75.6832 130.238 75.5068 130 75.5068 129.641V129.522H75.742V129.641C75.742 129.821 75.8007 130 76.0358 130C76.2122 130 76.3297 129.88 76.3297 129.641C76.3297 129.104 75.5656 129.104 75.5656 128.447C75.5656 128.089 75.742 127.85 76.0946 127.85C76.3297 127.91 76.5061 128.149 76.5061 128.507Z" fill="#F8C730"/>
<path d="M77.0348 129.582H77.5638L77.3287 128.269L77.0348 129.582ZM77.0348 129.821L76.9172 130.299H76.6821L77.0936 127.97H77.4463L77.8577 130.299H77.6226L77.5638 129.821H77.0348Z" fill="#F8C730"/>
<path d="M78.3868 127.911H78.1523V130.239H78.3868V127.911Z" fill="#F8C730"/>
<path d="M78.976 130.239H78.7408V127.911H79.0347L79.5638 129.642V127.911H79.7989V130.239H79.5638L78.976 128.388V130.239Z" fill="#F8C730"/>
<path d="M80.4448 130.239V128.15H80.0333V127.911H81.0914V128.15H80.6799V130.239H80.4448Z" fill="#F8C730"/>
<path d="M81.8542 128.985H81.2087V129.224H81.8542V128.985Z" fill="#F8C730"/>
<path d="M82.5607 129.104C82.7371 129.104 82.8546 128.985 82.8546 128.806V128.507C82.8546 128.268 82.7959 128.209 82.6195 128.209H82.3844V129.164H82.5607V129.104ZM82.6195 127.91C82.9722 127.91 83.1485 128.149 83.1485 128.447V128.746C83.1485 129.104 82.9722 129.283 82.6195 129.283H82.3844V130.179H82.1493V127.85H82.6195V127.91Z" fill="#F8C730"/>
<path d="M84.1484 128.985V129.224H83.6194V130H84.3247V130.239H83.3843V127.911H84.3247V128.15H83.6194V128.985H84.1484Z" fill="#F8C730"/>
<path d="M84.9127 130.239V128.15H84.5012V127.911H85.5592V128.15H85.1478V130.239H84.9127Z" fill="#F8C730"/>
<path d="M86.6164 128.985V129.224H86.0286V130H86.7339V130.239H85.7935V127.911H86.7339V128.15H86.0286V128.985H86.6164Z" fill="#F8C730"/>
<path d="M87.4395 129.045C87.6159 129.045 87.7334 128.985 87.7334 128.747V128.508C87.7334 128.329 87.6746 128.209 87.4983 128.209H87.2632V129.045H87.4395ZM87.4983 127.911C87.851 127.911 88.0273 128.09 88.0273 128.448V128.627C88.0273 128.866 87.9098 129.045 87.7334 129.105C87.9685 129.164 88.0273 129.344 88.0273 129.582V129.941C88.0273 130.06 88.0273 130.12 88.0861 130.239H87.851C87.851 130.179 87.7922 130.12 87.7922 129.941V129.582C87.7922 129.344 87.6746 129.224 87.4395 129.224H87.2632V130.239H87.0281V127.911H87.4983Z" fill="#F8C730"/>
<path d="M89.3204 128.507V128.567H89.0853V128.507C89.0853 128.268 89.0265 128.149 88.8502 128.149C88.6738 128.149 88.6151 128.268 88.6151 128.447C88.6151 128.985 89.3792 129.044 89.3792 129.641C89.3792 130 89.2029 130.238 88.8502 130.238C88.4975 130.238 88.3212 130 88.3212 129.641V129.522H88.5563V129.641C88.5563 129.821 88.6151 130 88.8502 130C89.0265 130 89.1441 129.88 89.1441 129.641C89.1441 129.104 88.3799 129.104 88.3799 128.447C88.3799 128.089 88.5563 127.85 88.909 127.85C89.1441 127.91 89.3204 128.149 89.3204 128.507Z" fill="#F8C730"/>
<path d="M90.085 130C90.2613 130 90.3789 129.881 90.3789 129.702V129.523C90.3789 129.284 90.2613 129.164 90.085 129.164H89.8499V130H90.085ZM90.0262 128.926C90.2025 128.926 90.3201 128.866 90.3201 128.627V128.508C90.3201 128.329 90.2613 128.209 90.085 128.209H89.8499V128.985H90.0262V128.926ZM90.085 127.911C90.4377 127.911 90.5552 128.09 90.5552 128.448V128.567C90.5552 128.806 90.4964 128.985 90.2613 129.045C90.4964 129.105 90.5552 129.284 90.5552 129.523V129.702C90.5552 130.06 90.3789 130.239 90.0262 130.239H89.4972V127.911H90.085Z" fill="#F8C730"/>
<path d="M91.0838 129.702C91.0838 129.941 91.1426 130.06 91.3777 130.06C91.554 130.06 91.6716 129.941 91.6716 129.702V127.911H91.8479V129.642C91.8479 130 91.6716 130.239 91.3189 130.239C90.9663 130.239 90.7899 130 90.7899 129.642V127.911H91.025V129.702H91.0838Z" fill="#F8C730"/>
<path d="M92.6121 129.045C92.7885 129.045 92.906 128.985 92.906 128.747V128.508C92.906 128.329 92.8473 128.209 92.6709 128.209H92.4358V129.045H92.6121ZM92.6709 127.911C93.0236 127.911 93.1999 128.09 93.1999 128.448V128.627C93.1999 128.866 93.0824 129.045 92.906 129.105C93.1412 129.164 93.1999 129.344 93.1999 129.582V129.941C93.1999 130.06 93.1999 130.12 93.2587 130.239H93.0236C93.0236 130.179 92.9648 130.12 92.9648 129.941V129.582C92.9648 129.344 92.8473 129.224 92.6121 129.224H92.4358V130.239H92.2007V127.911H92.6709Z" fill="#F8C730"/>
<path d="M94.493 128.507V128.686H94.2578V128.447C94.2578 128.209 94.1991 128.089 93.964 128.089C93.7876 128.089 93.6701 128.209 93.6701 128.447V129.701C93.6701 129.88 93.7288 130.059 93.964 130.059C94.1403 130.059 94.2578 129.94 94.2578 129.701V129.224H94.0227V128.985H94.493V129.641C94.493 130 94.3166 130.238 93.964 130.238C93.6113 130.238 93.4349 130 93.4349 129.641V128.447C93.4349 128.089 93.6113 127.85 93.964 127.85C94.3166 127.91 94.493 128.149 94.493 128.507Z" fill="#F8C730"/>
<path d="M73.0971 126.597H72.4505L71.1574 123.194C71.2162 123.373 71.2162 123.493 71.2162 123.552V126.538H70.452V121.164H71.1574L72.4505 124.448C72.3917 124.269 72.3917 124.15 72.3917 124.09V121.164H73.1559V126.597H73.0971Z" fill="white"/>
<path d="M75.5664 124.866L75.155 122.418L74.7435 124.866H75.5664ZM76.6244 126.597H75.8603L75.684 125.582H74.6847L74.5084 126.597H73.7443L74.7435 121.224H75.5664L76.6244 126.597Z" fill="white"/>
<path d="M79.915 126.597H79.0921L78.2104 124.09V123.612H78.9746V121.941H77.9753V126.597H77.2112V121.224H79.3272C79.6211 121.224 79.7975 121.403 79.7975 121.702V123.672C79.7975 123.911 79.7387 124.03 79.5623 124.09C79.5036 124.15 79.3272 124.15 79.0333 124.15L79.915 126.597Z" fill="white"/>
<path d="M83.2072 121.224L82.208 126.597H81.4438L80.4446 121.224H81.2675L81.8553 124.926C81.8553 125.045 81.8553 125.164 81.8553 125.403C81.8553 125.284 81.8553 125.164 81.8553 124.926L82.4431 121.224H83.2072Z" fill="white"/>
<path d="M86.3807 126.12C86.3807 126.418 86.2044 126.597 85.9105 126.597H84.3234C84.0295 126.597 83.8532 126.418 83.8532 126.12V124.866H84.6173V125.941H85.5578V124.866L83.9708 123.314C83.8532 123.194 83.7944 123.075 83.7944 122.896V121.702C83.7944 121.344 83.9708 121.224 84.2647 121.224H85.8517C86.1456 121.224 86.3219 121.403 86.3219 121.702V122.896H85.5578V121.881H84.6173V122.836L86.2044 124.329C86.3219 124.448 86.3807 124.567 86.3807 124.747V126.12Z" fill="white"/>
<path d="M89.849 126.597H88.9673L87.9681 124.209V126.597H87.1451V121.224H87.9681V123.493L88.8497 121.224H89.6726L88.6146 123.791L89.849 126.597Z" fill="white"/>
<path d="M91.966 124.866L91.5545 122.418L91.143 124.866H91.966ZM93.024 126.597H92.2598L92.0835 125.582H91.0843L90.9079 126.597H90.1438L91.143 121.224H91.966L93.024 126.597Z" fill="white"/>
<path d="M96.2556 121.224L95.5503 123.493C95.4915 123.732 95.3739 124.09 95.1976 124.627V126.597H94.3747V124.627C94.3159 124.448 94.3159 124.269 94.1983 124.09C94.0808 123.732 94.022 123.553 94.022 123.553L93.3167 121.284C93.3167 121.284 93.3167 121.284 93.3167 121.224H94.1983L94.8449 123.553L95.4915 121.224H96.2556Z" fill="white"/>
<path d="M98.4895 124.866L98.0781 122.418L97.6666 124.866H98.4895ZM99.5475 126.597H98.7834L98.6071 125.582H97.6078L97.4315 126.597H96.6674L97.6666 121.224H98.4895L99.5475 126.597Z" fill="white"/>
<defs>
<filter id="filter0_d" x="10" y="20" width="150" height="180" filterUnits="userSpaceOnUse" color-interpolation-filters="sRGB">
<feFlood flood-opacity="0" result="BackgroundImageFix"/>
<feColorMatrix in="SourceAlpha" type="matrix" values="0 0 0 0 0 0 0 0 0 0 0 0 0 0 0 0 0 0 127 0"/>
<feMorphology radius="10" operator="erode" in="SourceAlpha" result="effect1_dropShadow"/>
<feOffset dy="10"/>
<feGaussianBlur stdDeviation="10"/>
<feColorMatrix type="matrix" values="0 0 0 0 0 0 0 0 0 0 0 0 0 0 0 0 0 0 0.25 0"/>
<feBlend mode="normal" in2="BackgroundImageFix" result="effect1_dropShadow"/>
<feBlend mode="normal" in="SourceGraphic" in2="effect1_dropShadow" result="shape"/>
</filter>
</defs>
</svg>
