<svg width="12" height="12" viewBox="0 0 12 12" fill="none" xmlns="http://www.w3.org/2000/svg">
<path d="M4.99997 10.9998L4.99997 3.40977L1.71268 6.70977C1.52453 6.89808 1.26935 7.00387 1.00326 7.00387C0.737182 7.00387 0.481998 6.89808 0.293849 6.70977C0.105701 6.52147 -2.73691e-07 6.26608 -2.6205e-07 5.99977C-2.5041e-07 5.73347 0.105701 5.47808 0.293849 5.28977L5.28973 0.289775C5.38476 0.198734 5.49681 0.127369 5.61946 0.0797745C5.86272 -0.0202435 6.13557 -0.0202435 6.37883 0.0797745C6.50149 0.127369 6.61354 0.198734 6.70856 0.289775L11.7044 5.28977C11.7981 5.38274 11.8724 5.49334 11.9232 5.6152C11.9739 5.73706 12 5.86776 12 5.99977C12 6.13179 11.9739 6.26249 11.9232 6.38435C11.8724 6.50621 11.7981 6.61681 11.7044 6.70978C11.6116 6.8035 11.501 6.8779 11.3793 6.92867C11.2575 6.97943 11.1269 7.00557 10.995 7.00557C10.8631 7.00557 10.7325 6.97943 10.6108 6.92867C10.489 6.8779 10.3785 6.8035 10.2856 6.70977L6.99832 3.40977L6.99832 10.9998C6.99832 11.265 6.89305 11.5193 6.70567 11.7069C6.51829 11.8944 6.26415 11.9998 5.99915 11.9998C5.73415 11.9998 5.48 11.8944 5.29262 11.7069C5.10524 11.5193 4.99997 11.265 4.99997 10.9998Z" fill="white"/>
</svg>
