<svg width="12" height="12" viewBox="0 0 12 12" fill="none" xmlns="http://www.w3.org/2000/svg">
<path d="M4.99997 1.00499L4.99997 8.59499L1.71268 5.29499C1.52453 5.10668 1.26935 5.00089 1.00326 5.00089C0.737182 5.00089 0.481998 5.10668 0.293849 5.29499C0.105701 5.48329 -2.73691e-07 5.73868 -2.6205e-07 6.00499C-2.5041e-07 6.27129 0.105701 6.52668 0.293849 6.71499L5.28973 11.715C5.38476 11.806 5.49681 11.8774 5.61946 11.925C5.86272 12.025 6.13557 12.025 6.37883 11.925C6.50149 11.8774 6.61354 11.806 6.70856 11.715L11.7044 6.71499C11.7981 6.62202 11.8724 6.51142 11.9232 6.38956C11.9739 6.2677 12 6.137 12 6.00499C12 5.87297 11.9739 5.74227 11.9232 5.62041C11.8724 5.49855 11.7981 5.38795 11.7044 5.29499C11.6116 5.20126 11.501 5.12686 11.3793 5.07609C11.2575 5.02533 11.1269 4.99919 10.995 4.99919C10.8631 4.99919 10.7325 5.02533 10.6108 5.07609C10.489 5.12686 10.3785 5.20126 10.2856 5.29499L6.99832 8.59499L6.99832 1.00499C6.99832 0.73977 6.89305 0.485415 6.70567 0.297879C6.51829 0.110343 6.26415 0.00498649 5.99915 0.0049865C5.73415 0.00498651 5.48 0.110343 5.29262 0.297879C5.10524 0.485415 4.99997 0.73977 4.99997 1.00499Z" fill="white"/>
</svg>
