<svg width="34" height="60" viewBox="0 0 34 60" fill="none" xmlns="http://www.w3.org/2000/svg">
<path d="M0.653845 33.4879L21.9038 46.3613L0.653846 50.8626L0.653846 60L33.3462 52.8431L33.3462 44.0657L0.653845 24.3054L0.653845 33.4879Z" fill="white"/>
<path d="M34 17.4197C34 8.19219 29.3764 2.2506 22.3709 2.2506C12.283 2.2506 14.8516 17.5997 10.3681 17.5547C8.59341 17.5547 7.19231 15.5742 7.19231 11.8832C7.19231 8.77735 8.03296 5.71653 9.66758 3.24087L2.8022 -1.91379e-06C0.980768 2.83576 -2.32165e-06 6.88684 -2.12686e-06 11.343C-1.71958e-06 20.6605 4.62363 26.4671 11.6758 26.4671C21.9506 26.4671 19.522 11.163 23.9121 11.163C25.6868 11.163 26.8077 13.1435 26.8077 16.5644C26.8077 20.1654 25.6868 23.8564 23.5852 27.0522L30.4973 30.5632C32.5055 27.7274 34 22.8211 34 17.4197Z" fill="white"/>
</svg>
